<svg viewBox="0 0 120 80" xmlns="http://www.w3.org/2000/svg"><defs><linearGradient id="logoGrad" x1="0%" y1="0%" x2="100%" y2="100%"><stop offset="0%" style="stop-color:#AC9469"/><stop offset="50%" style="stop-color:#294359"/><stop offset="100%" style="stop-color:#B4AC9C"/></linearGradient></defs><g fill="url(#logoGrad)"><path d="M20 15 Q35 5 50 15 Q65 25 80 15 Q95 5 110 15 L110 35 Q95 45 80 35 Q65 25 50 35 Q35 45 20 35 Z"/><circle cx="30" cy="25" r="3"/><circle cx="50" cy="25" r="3"/><circle cx="70" cy="25" r="3"/><circle cx="90" cy="25" r="3"/><path d="M25 50 Q40 40 55 50 Q70 60 85 50 Q100 40 115 50 L115 70 Q100 80 85 70 Q70 60 55 70 Q40 80 25 70 Z"/></g></svg>
